<?xml version="1.0" encoding="utf-8" standalone="no"?>
<!DOCTYPE svg PUBLIC "-//W3C//DTD SVG 1.1//EN"
  "http://www.w3.org/Graphics/SVG/1.1/DTD/svg11.dtd">
<svg xmlns:xlink="http://www.w3.org/1999/xlink" width="1373.76pt" height="671.76pt" viewBox="0 0 1373.76 671.76" xmlns="http://www.w3.org/2000/svg" version="1.1">
 <metadata>
  <rdf:RDF xmlns:dc="http://purl.org/dc/elements/1.1/" xmlns:cc="http://creativecommons.org/ns#" xmlns:rdf="http://www.w3.org/1999/02/22-rdf-syntax-ns#">
   <cc:Work>
    <dc:type rdf:resource="http://purl.org/dc/dcmitype/StillImage"/>
    <dc:date>2025-03-31T18:38:50.512194</dc:date>
    <dc:format>image/svg+xml</dc:format>
    <dc:creator>
     <cc:Agent>
      <dc:title>Matplotlib v3.6.3, https://matplotlib.org/</dc:title>
     </cc:Agent>
    </dc:creator>
   </cc:Work>
  </rdf:RDF>
 </metadata>
 <defs>
  <style type="text/css">*{stroke-linejoin: round; stroke-linecap: butt}</style>
 </defs>
 <g id="figure_1">
  <g id="patch_1">
   <path d="M 0 671.76 
L 1373.76 671.76 
L 1373.76 0 
L 0 0 
z
" style="fill: #ffffff"/>
  </g>
  <g id="axes_1">
   <g id="patch_2">
    <path d="M 171.72 597.8664 
L 1236.384 597.8664 
L 1236.384 80.6112 
L 171.72 80.6112 
z
" style="fill: #ffffff"/>
   </g>
   <g id="matplotlib.axis_1">
    <g id="xtick_1">
     <g id="line2d_1">
      <defs>
       <path id="mf1a09b0780" d="M 0 0 
L 0 3.5 
" style="stroke: #000000; stroke-width: 0.8"/>
      </defs>
      <g>
       <use xlink:href="#mf1a09b0780" x="308.102579" y="597.8664" style="stroke: #000000; stroke-width: 0.8"/>
      </g>
     </g>
     <g id="text_1">
      <!-- 2 -->
      <g transform="translate(304.921329 612.464838) scale(0.1 -0.1)">
       <defs>
        <path id="DejaVuSans-32" d="M 1228 531 
L 3431 531 
L 3431 0 
L 469 0 
L 469 531 
Q 828 903 1448 1529 
Q 2069 2156 2228 2338 
Q 2531 2678 2651 2914 
Q 2772 3150 2772 3378 
Q 2772 3750 2511 3984 
Q 2250 4219 1831 4219 
Q 1534 4219 1204 4116 
Q 875 4013 500 3803 
L 500 4441 
Q 881 4594 1212 4672 
Q 1544 4750 1819 4750 
Q 2544 4750 2975 4387 
Q 3406 4025 3406 3419 
Q 3406 3131 3298 2873 
Q 3191 2616 2906 2266 
Q 2828 2175 2409 1742 
Q 1991 1309 1228 531 
z
" transform="scale(0.015625)"/>
       </defs>
       <use xlink:href="#DejaVuSans-32"/>
      </g>
     </g>
    </g>
    <g id="xtick_2">
     <g id="line2d_2">
      <g>
       <use xlink:href="#mf1a09b0780" x="484.080099" y="597.8664" style="stroke: #000000; stroke-width: 0.8"/>
      </g>
     </g>
     <g id="text_2">
      <!-- 4 -->
      <g transform="translate(480.898849 612.464838) scale(0.1 -0.1)">
       <defs>
        <path id="DejaVuSans-34" d="M 2419 4116 
L 825 1625 
L 2419 1625 
L 2419 4116 
z
M 2253 4666 
L 3047 4666 
L 3047 1625 
L 3713 1625 
L 3713 1100 
L 3047 1100 
L 3047 0 
L 2419 0 
L 2419 1100 
L 313 1100 
L 313 1709 
L 2253 4666 
z
" transform="scale(0.015625)"/>
       </defs>
       <use xlink:href="#DejaVuSans-34"/>
      </g>
     </g>
    </g>
    <g id="xtick_3">
     <g id="line2d_3">
      <g>
       <use xlink:href="#mf1a09b0780" x="660.05762" y="597.8664" style="stroke: #000000; stroke-width: 0.8"/>
      </g>
     </g>
     <g id="text_3">
      <!-- 6 -->
      <g transform="translate(656.87637 612.464838) scale(0.1 -0.1)">
       <defs>
        <path id="DejaVuSans-36" d="M 2113 2584 
Q 1688 2584 1439 2293 
Q 1191 2003 1191 1497 
Q 1191 994 1439 701 
Q 1688 409 2113 409 
Q 2538 409 2786 701 
Q 3034 994 3034 1497 
Q 3034 2003 2786 2293 
Q 2538 2584 2113 2584 
z
M 3366 4563 
L 3366 3988 
Q 3128 4100 2886 4159 
Q 2644 4219 2406 4219 
Q 1781 4219 1451 3797 
Q 1122 3375 1075 2522 
Q 1259 2794 1537 2939 
Q 1816 3084 2150 3084 
Q 2853 3084 3261 2657 
Q 3669 2231 3669 1497 
Q 3669 778 3244 343 
Q 2819 -91 2113 -91 
Q 1303 -91 875 529 
Q 447 1150 447 2328 
Q 447 3434 972 4092 
Q 1497 4750 2381 4750 
Q 2619 4750 2861 4703 
Q 3103 4656 3366 4563 
z
" transform="scale(0.015625)"/>
       </defs>
       <use xlink:href="#DejaVuSans-36"/>
      </g>
     </g>
    </g>
    <g id="xtick_4">
     <g id="line2d_4">
      <g>
       <use xlink:href="#mf1a09b0780" x="836.03514" y="597.8664" style="stroke: #000000; stroke-width: 0.8"/>
      </g>
     </g>
     <g id="text_4">
      <!-- 8 -->
      <g transform="translate(832.85389 612.464838) scale(0.1 -0.1)">
       <defs>
        <path id="DejaVuSans-38" d="M 2034 2216 
Q 1584 2216 1326 1975 
Q 1069 1734 1069 1313 
Q 1069 891 1326 650 
Q 1584 409 2034 409 
Q 2484 409 2743 651 
Q 3003 894 3003 1313 
Q 3003 1734 2745 1975 
Q 2488 2216 2034 2216 
z
M 1403 2484 
Q 997 2584 770 2862 
Q 544 3141 544 3541 
Q 544 4100 942 4425 
Q 1341 4750 2034 4750 
Q 2731 4750 3128 4425 
Q 3525 4100 3525 3541 
Q 3525 3141 3298 2862 
Q 3072 2584 2669 2484 
Q 3125 2378 3379 2068 
Q 3634 1759 3634 1313 
Q 3634 634 3220 271 
Q 2806 -91 2034 -91 
Q 1263 -91 848 271 
Q 434 634 434 1313 
Q 434 1759 690 2068 
Q 947 2378 1403 2484 
z
M 1172 3481 
Q 1172 3119 1398 2916 
Q 1625 2713 2034 2713 
Q 2441 2713 2670 2916 
Q 2900 3119 2900 3481 
Q 2900 3844 2670 4047 
Q 2441 4250 2034 4250 
Q 1625 4250 1398 4047 
Q 1172 3844 1172 3481 
z
" transform="scale(0.015625)"/>
       </defs>
       <use xlink:href="#DejaVuSans-38"/>
      </g>
     </g>
    </g>
    <g id="xtick_5">
     <g id="line2d_5">
      <g>
       <use xlink:href="#mf1a09b0780" x="1012.012661" y="597.8664" style="stroke: #000000; stroke-width: 0.8"/>
      </g>
     </g>
     <g id="text_5">
      <!-- 10 -->
      <g transform="translate(1005.650161 612.464838) scale(0.1 -0.1)">
       <defs>
        <path id="DejaVuSans-31" d="M 794 531 
L 1825 531 
L 1825 4091 
L 703 3866 
L 703 4441 
L 1819 4666 
L 2450 4666 
L 2450 531 
L 3481 531 
L 3481 0 
L 794 0 
L 794 531 
z
" transform="scale(0.015625)"/>
        <path id="DejaVuSans-30" d="M 2034 4250 
Q 1547 4250 1301 3770 
Q 1056 3291 1056 2328 
Q 1056 1369 1301 889 
Q 1547 409 2034 409 
Q 2525 409 2770 889 
Q 3016 1369 3016 2328 
Q 3016 3291 2770 3770 
Q 2525 4250 2034 4250 
z
M 2034 4750 
Q 2819 4750 3233 4129 
Q 3647 3509 3647 2328 
Q 3647 1150 3233 529 
Q 2819 -91 2034 -91 
Q 1250 -91 836 529 
Q 422 1150 422 2328 
Q 422 3509 836 4129 
Q 1250 4750 2034 4750 
z
" transform="scale(0.015625)"/>
       </defs>
       <use xlink:href="#DejaVuSans-31"/>
       <use xlink:href="#DejaVuSans-30" x="63.623047"/>
      </g>
     </g>
    </g>
    <g id="xtick_6">
     <g id="line2d_6">
      <g>
       <use xlink:href="#mf1a09b0780" x="1187.990182" y="597.8664" style="stroke: #000000; stroke-width: 0.8"/>
      </g>
     </g>
     <g id="text_6">
      <!-- 12 -->
      <g transform="translate(1181.627682 612.464838) scale(0.1 -0.1)">
       <use xlink:href="#DejaVuSans-31"/>
       <use xlink:href="#DejaVuSans-32" x="63.623047"/>
      </g>
     </g>
    </g>
    <g id="text_7">
     <!-- $N_{Threads}$ -->
     <g transform="translate(686.002 626.142962) scale(0.1 -0.1)">
      <defs>
       <path id="DejaVuSans-Oblique-4e" d="M 1081 4666 
L 1931 4666 
L 3219 666 
L 4000 4666 
L 4616 4666 
L 3706 0 
L 2853 0 
L 1569 4025 
L 788 0 
L 172 0 
L 1081 4666 
z
" transform="scale(0.015625)"/>
       <path id="DejaVuSans-Oblique-54" d="M 378 4666 
L 4325 4666 
L 4225 4134 
L 2559 4134 
L 1759 0 
L 1125 0 
L 1925 4134 
L 275 4134 
L 378 4666 
z
" transform="scale(0.015625)"/>
       <path id="DejaVuSans-Oblique-68" d="M 3566 2113 
L 3156 0 
L 2578 0 
L 2988 2091 
Q 3016 2238 3031 2350 
Q 3047 2463 3047 2528 
Q 3047 2791 2881 2937 
Q 2716 3084 2419 3084 
Q 1956 3084 1617 2771 
Q 1278 2459 1178 1941 
L 800 0 
L 225 0 
L 1172 4863 
L 1747 4863 
L 1375 2950 
Q 1594 3244 1934 3414 
Q 2275 3584 2650 3584 
Q 3113 3584 3367 3334 
Q 3622 3084 3622 2631 
Q 3622 2519 3608 2391 
Q 3594 2263 3566 2113 
z
" transform="scale(0.015625)"/>
       <path id="DejaVuSans-Oblique-72" d="M 2853 2969 
Q 2766 3016 2653 3041 
Q 2541 3066 2413 3066 
Q 1953 3066 1609 2717 
Q 1266 2369 1153 1784 
L 800 0 
L 225 0 
L 909 3500 
L 1484 3500 
L 1375 2956 
Q 1603 3259 1920 3421 
Q 2238 3584 2597 3584 
Q 2691 3584 2781 3573 
Q 2872 3563 2963 3538 
L 2853 2969 
z
" transform="scale(0.015625)"/>
       <path id="DejaVuSans-Oblique-65" d="M 3078 2063 
Q 3088 2113 3092 2166 
Q 3097 2219 3097 2272 
Q 3097 2653 2873 2875 
Q 2650 3097 2266 3097 
Q 1838 3097 1509 2826 
Q 1181 2556 1013 2059 
L 3078 2063 
z
M 3578 1613 
L 903 1613 
Q 884 1494 878 1425 
Q 872 1356 872 1306 
Q 872 872 1139 634 
Q 1406 397 1894 397 
Q 2269 397 2603 481 
Q 2938 566 3225 728 
L 3116 159 
Q 2806 34 2476 -28 
Q 2147 -91 1806 -91 
Q 1078 -91 686 257 
Q 294 606 294 1247 
Q 294 1794 489 2264 
Q 684 2734 1063 3103 
Q 1306 3334 1642 3459 
Q 1978 3584 2356 3584 
Q 2950 3584 3301 3228 
Q 3653 2872 3653 2272 
Q 3653 2128 3634 1964 
Q 3616 1800 3578 1613 
z
" transform="scale(0.015625)"/>
       <path id="DejaVuSans-Oblique-61" d="M 3438 1997 
L 3047 0 
L 2472 0 
L 2578 531 
Q 2325 219 2001 64 
Q 1678 -91 1281 -91 
Q 834 -91 548 182 
Q 263 456 263 884 
Q 263 1497 752 1853 
Q 1241 2209 2100 2209 
L 2900 2209 
L 2931 2363 
Q 2938 2388 2941 2417 
Q 2944 2447 2944 2509 
Q 2944 2788 2717 2942 
Q 2491 3097 2081 3097 
Q 1800 3097 1504 3025 
Q 1209 2953 897 2809 
L 997 3341 
Q 1322 3463 1633 3523 
Q 1944 3584 2234 3584 
Q 2853 3584 3176 3315 
Q 3500 3047 3500 2534 
Q 3500 2431 3484 2292 
Q 3469 2153 3438 1997 
z
M 2816 1759 
L 2241 1759 
Q 1534 1759 1195 1570 
Q 856 1381 856 984 
Q 856 709 1029 553 
Q 1203 397 1509 397 
Q 1978 397 2328 733 
Q 2678 1069 2791 1631 
L 2816 1759 
z
" transform="scale(0.015625)"/>
       <path id="DejaVuSans-Oblique-64" d="M 2675 525 
Q 2444 222 2128 65 
Q 1813 -91 1428 -91 
Q 903 -91 598 267 
Q 294 625 294 1247 
Q 294 1766 478 2236 
Q 663 2706 1013 3078 
Q 1244 3325 1534 3454 
Q 1825 3584 2144 3584 
Q 2481 3584 2739 3421 
Q 2997 3259 3138 2956 
L 3513 4863 
L 4091 4863 
L 3144 0 
L 2566 0 
L 2675 525 
z
M 891 1350 
Q 891 897 1095 644 
Q 1300 391 1663 391 
Q 1931 391 2161 520 
Q 2391 650 2566 903 
Q 2750 1166 2856 1509 
Q 2963 1853 2963 2188 
Q 2963 2622 2758 2865 
Q 2553 3109 2194 3109 
Q 1922 3109 1687 2981 
Q 1453 2853 1288 2613 
Q 1106 2353 998 2009 
Q 891 1666 891 1350 
z
" transform="scale(0.015625)"/>
       <path id="DejaVuSans-Oblique-73" d="M 3200 3397 
L 3091 2853 
Q 2863 2978 2609 3040 
Q 2356 3103 2088 3103 
Q 1634 3103 1373 2948 
Q 1113 2794 1113 2528 
Q 1113 2219 1719 2053 
Q 1766 2041 1788 2034 
L 1972 1978 
Q 2547 1819 2739 1644 
Q 2931 1469 2931 1166 
Q 2931 609 2489 259 
Q 2047 -91 1331 -91 
Q 1053 -91 747 -37 
Q 441 16 72 128 
L 184 722 
Q 500 559 806 475 
Q 1113 391 1394 391 
Q 1816 391 2080 572 
Q 2344 753 2344 1031 
Q 2344 1331 1650 1516 
L 1591 1531 
L 1394 1581 
Q 956 1697 753 1886 
Q 550 2075 550 2369 
Q 550 2928 970 3256 
Q 1391 3584 2113 3584 
Q 2397 3584 2667 3537 
Q 2938 3491 3200 3397 
z
" transform="scale(0.015625)"/>
      </defs>
      <use xlink:href="#DejaVuSans-Oblique-4e" transform="translate(0 0.09375)"/>
      <use xlink:href="#DejaVuSans-Oblique-54" transform="translate(74.804688 -16.3125) scale(0.7)"/>
      <use xlink:href="#DejaVuSans-Oblique-68" transform="translate(117.563477 -16.3125) scale(0.7)"/>
      <use xlink:href="#DejaVuSans-Oblique-72" transform="translate(161.928711 -16.3125) scale(0.7)"/>
      <use xlink:href="#DejaVuSans-Oblique-65" transform="translate(190.708008 -16.3125) scale(0.7)"/>
      <use xlink:href="#DejaVuSans-Oblique-61" transform="translate(233.774414 -16.3125) scale(0.7)"/>
      <use xlink:href="#DejaVuSans-Oblique-64" transform="translate(276.669922 -16.3125) scale(0.7)"/>
      <use xlink:href="#DejaVuSans-Oblique-73" transform="translate(321.103516 -16.3125) scale(0.7)"/>
     </g>
    </g>
   </g>
   <g id="matplotlib.axis_2">
    <g id="ytick_1">
     <g id="line2d_7">
      <defs>
       <path id="m9bde6a0180" d="M 0 0 
L -3.5 0 
" style="stroke: #000000; stroke-width: 0.8"/>
      </defs>
      <g>
       <use xlink:href="#m9bde6a0180" x="171.72" y="584.067548" style="stroke: #000000; stroke-width: 0.8"/>
      </g>
     </g>
     <g id="text_8">
      <!-- 0.016 -->
      <g transform="translate(136.091875 587.866767) scale(0.1 -0.1)">
       <defs>
        <path id="DejaVuSans-2e" d="M 684 794 
L 1344 794 
L 1344 0 
L 684 0 
L 684 794 
z
" transform="scale(0.015625)"/>
       </defs>
       <use xlink:href="#DejaVuSans-30"/>
       <use xlink:href="#DejaVuSans-2e" x="63.623047"/>
       <use xlink:href="#DejaVuSans-30" x="95.410156"/>
       <use xlink:href="#DejaVuSans-31" x="159.033203"/>
       <use xlink:href="#DejaVuSans-36" x="222.65625"/>
      </g>
     </g>
    </g>
    <g id="ytick_2">
     <g id="line2d_8">
      <g>
       <use xlink:href="#m9bde6a0180" x="171.72" y="525.380247" style="stroke: #000000; stroke-width: 0.8"/>
      </g>
     </g>
     <g id="text_9">
      <!-- 0.018 -->
      <g transform="translate(136.091875 529.179466) scale(0.1 -0.1)">
       <use xlink:href="#DejaVuSans-30"/>
       <use xlink:href="#DejaVuSans-2e" x="63.623047"/>
       <use xlink:href="#DejaVuSans-30" x="95.410156"/>
       <use xlink:href="#DejaVuSans-31" x="159.033203"/>
       <use xlink:href="#DejaVuSans-38" x="222.65625"/>
      </g>
     </g>
    </g>
    <g id="ytick_3">
     <g id="line2d_9">
      <g>
       <use xlink:href="#m9bde6a0180" x="171.72" y="466.692946" style="stroke: #000000; stroke-width: 0.8"/>
      </g>
     </g>
     <g id="text_10">
      <!-- 0.020 -->
      <g transform="translate(136.091875 470.492165) scale(0.1 -0.1)">
       <use xlink:href="#DejaVuSans-30"/>
       <use xlink:href="#DejaVuSans-2e" x="63.623047"/>
       <use xlink:href="#DejaVuSans-30" x="95.410156"/>
       <use xlink:href="#DejaVuSans-32" x="159.033203"/>
       <use xlink:href="#DejaVuSans-30" x="222.65625"/>
      </g>
     </g>
    </g>
    <g id="ytick_4">
     <g id="line2d_10">
      <g>
       <use xlink:href="#m9bde6a0180" x="171.72" y="408.005645" style="stroke: #000000; stroke-width: 0.8"/>
      </g>
     </g>
     <g id="text_11">
      <!-- 0.022 -->
      <g transform="translate(136.091875 411.804864) scale(0.1 -0.1)">
       <use xlink:href="#DejaVuSans-30"/>
       <use xlink:href="#DejaVuSans-2e" x="63.623047"/>
       <use xlink:href="#DejaVuSans-30" x="95.410156"/>
       <use xlink:href="#DejaVuSans-32" x="159.033203"/>
       <use xlink:href="#DejaVuSans-32" x="222.65625"/>
      </g>
     </g>
    </g>
    <g id="ytick_5">
     <g id="line2d_11">
      <g>
       <use xlink:href="#m9bde6a0180" x="171.72" y="349.318344" style="stroke: #000000; stroke-width: 0.8"/>
      </g>
     </g>
     <g id="text_12">
      <!-- 0.024 -->
      <g transform="translate(136.091875 353.117563) scale(0.1 -0.1)">
       <use xlink:href="#DejaVuSans-30"/>
       <use xlink:href="#DejaVuSans-2e" x="63.623047"/>
       <use xlink:href="#DejaVuSans-30" x="95.410156"/>
       <use xlink:href="#DejaVuSans-32" x="159.033203"/>
       <use xlink:href="#DejaVuSans-34" x="222.65625"/>
      </g>
     </g>
    </g>
    <g id="ytick_6">
     <g id="line2d_12">
      <g>
       <use xlink:href="#m9bde6a0180" x="171.72" y="290.631043" style="stroke: #000000; stroke-width: 0.8"/>
      </g>
     </g>
     <g id="text_13">
      <!-- 0.026 -->
      <g transform="translate(136.091875 294.430262) scale(0.1 -0.1)">
       <use xlink:href="#DejaVuSans-30"/>
       <use xlink:href="#DejaVuSans-2e" x="63.623047"/>
       <use xlink:href="#DejaVuSans-30" x="95.410156"/>
       <use xlink:href="#DejaVuSans-32" x="159.033203"/>
       <use xlink:href="#DejaVuSans-36" x="222.65625"/>
      </g>
     </g>
    </g>
    <g id="ytick_7">
     <g id="line2d_13">
      <g>
       <use xlink:href="#m9bde6a0180" x="171.72" y="231.943742" style="stroke: #000000; stroke-width: 0.8"/>
      </g>
     </g>
     <g id="text_14">
      <!-- 0.028 -->
      <g transform="translate(136.091875 235.742961) scale(0.1 -0.1)">
       <use xlink:href="#DejaVuSans-30"/>
       <use xlink:href="#DejaVuSans-2e" x="63.623047"/>
       <use xlink:href="#DejaVuSans-30" x="95.410156"/>
       <use xlink:href="#DejaVuSans-32" x="159.033203"/>
       <use xlink:href="#DejaVuSans-38" x="222.65625"/>
      </g>
     </g>
    </g>
    <g id="ytick_8">
     <g id="line2d_14">
      <g>
       <use xlink:href="#m9bde6a0180" x="171.72" y="173.256441" style="stroke: #000000; stroke-width: 0.8"/>
      </g>
     </g>
     <g id="text_15">
      <!-- 0.030 -->
      <g transform="translate(136.091875 177.055659) scale(0.1 -0.1)">
       <defs>
        <path id="DejaVuSans-33" d="M 2597 2516 
Q 3050 2419 3304 2112 
Q 3559 1806 3559 1356 
Q 3559 666 3084 287 
Q 2609 -91 1734 -91 
Q 1441 -91 1130 -33 
Q 819 25 488 141 
L 488 750 
Q 750 597 1062 519 
Q 1375 441 1716 441 
Q 2309 441 2620 675 
Q 2931 909 2931 1356 
Q 2931 1769 2642 2001 
Q 2353 2234 1838 2234 
L 1294 2234 
L 1294 2753 
L 1863 2753 
Q 2328 2753 2575 2939 
Q 2822 3125 2822 3475 
Q 2822 3834 2567 4026 
Q 2313 4219 1838 4219 
Q 1578 4219 1281 4162 
Q 984 4106 628 3988 
L 628 4550 
Q 988 4650 1302 4700 
Q 1616 4750 1894 4750 
Q 2613 4750 3031 4423 
Q 3450 4097 3450 3541 
Q 3450 3153 3228 2886 
Q 3006 2619 2597 2516 
z
" transform="scale(0.015625)"/>
       </defs>
       <use xlink:href="#DejaVuSans-30"/>
       <use xlink:href="#DejaVuSans-2e" x="63.623047"/>
       <use xlink:href="#DejaVuSans-30" x="95.410156"/>
       <use xlink:href="#DejaVuSans-33" x="159.033203"/>
       <use xlink:href="#DejaVuSans-30" x="222.65625"/>
      </g>
     </g>
    </g>
    <g id="ytick_9">
     <g id="line2d_15">
      <g>
       <use xlink:href="#m9bde6a0180" x="171.72" y="114.56914" style="stroke: #000000; stroke-width: 0.8"/>
      </g>
     </g>
     <g id="text_16">
      <!-- 0.032 -->
      <g transform="translate(136.091875 118.368358) scale(0.1 -0.1)">
       <use xlink:href="#DejaVuSans-30"/>
       <use xlink:href="#DejaVuSans-2e" x="63.623047"/>
       <use xlink:href="#DejaVuSans-30" x="95.410156"/>
       <use xlink:href="#DejaVuSans-33" x="159.033203"/>
       <use xlink:href="#DejaVuSans-32" x="222.65625"/>
      </g>
     </g>
    </g>
    <g id="text_17">
     <!-- $t_{Integration}$ -->
     <g transform="translate(128.991875 360.6388) rotate(-90) scale(0.1 -0.1)">
      <defs>
       <path id="DejaVuSans-Oblique-74" d="M 2706 3500 
L 2619 3053 
L 1472 3053 
L 1100 1153 
Q 1081 1047 1072 975 
Q 1063 903 1063 863 
Q 1063 663 1183 572 
Q 1303 481 1569 481 
L 2150 481 
L 2053 0 
L 1503 0 
Q 991 0 739 200 
Q 488 400 488 806 
Q 488 878 497 964 
Q 506 1050 525 1153 
L 897 3053 
L 409 3053 
L 500 3500 
L 978 3500 
L 1172 4494 
L 1747 4494 
L 1556 3500 
L 2706 3500 
z
" transform="scale(0.015625)"/>
       <path id="DejaVuSans-Oblique-49" d="M 1081 4666 
L 1716 4666 
L 806 0 
L 172 0 
L 1081 4666 
z
" transform="scale(0.015625)"/>
       <path id="DejaVuSans-Oblique-6e" d="M 3566 2113 
L 3156 0 
L 2578 0 
L 2988 2091 
Q 3016 2238 3031 2350 
Q 3047 2463 3047 2528 
Q 3047 2791 2881 2937 
Q 2716 3084 2419 3084 
Q 1956 3084 1622 2776 
Q 1288 2469 1184 1941 
L 800 0 
L 225 0 
L 903 3500 
L 1478 3500 
L 1363 2950 
Q 1603 3253 1940 3418 
Q 2278 3584 2650 3584 
Q 3113 3584 3367 3334 
Q 3622 3084 3622 2631 
Q 3622 2519 3608 2391 
Q 3594 2263 3566 2113 
z
" transform="scale(0.015625)"/>
       <path id="DejaVuSans-Oblique-67" d="M 3816 3500 
L 3219 434 
Q 3047 -456 2561 -893 
Q 2075 -1331 1253 -1331 
Q 950 -1331 690 -1286 
Q 431 -1241 206 -1147 
L 313 -588 
Q 525 -725 762 -790 
Q 1000 -856 1269 -856 
Q 1816 -856 2167 -557 
Q 2519 -259 2631 300 
L 2681 563 
Q 2441 288 2122 144 
Q 1803 0 1434 0 
Q 903 0 598 351 
Q 294 703 294 1319 
Q 294 1803 478 2267 
Q 663 2731 997 3091 
Q 1219 3328 1514 3456 
Q 1809 3584 2131 3584 
Q 2484 3584 2746 3420 
Q 3009 3256 3138 2956 
L 3238 3500 
L 3816 3500 
z
M 2950 2216 
Q 2950 2641 2750 2872 
Q 2550 3103 2181 3103 
Q 1953 3103 1747 3012 
Q 1541 2922 1394 2759 
Q 1156 2491 1023 2127 
Q 891 1763 891 1375 
Q 891 944 1092 712 
Q 1294 481 1672 481 
Q 2219 481 2584 976 
Q 2950 1472 2950 2216 
z
" transform="scale(0.015625)"/>
       <path id="DejaVuSans-Oblique-69" d="M 1172 4863 
L 1747 4863 
L 1606 4134 
L 1031 4134 
L 1172 4863 
z
M 909 3500 
L 1484 3500 
L 800 0 
L 225 0 
L 909 3500 
z
" transform="scale(0.015625)"/>
       <path id="DejaVuSans-Oblique-6f" d="M 1625 -91 
Q 1009 -91 651 289 
Q 294 669 294 1325 
Q 294 1706 417 2101 
Q 541 2497 738 2766 
Q 1047 3184 1428 3384 
Q 1809 3584 2291 3584 
Q 2888 3584 3255 3212 
Q 3622 2841 3622 2241 
Q 3622 1825 3500 1412 
Q 3378 1000 3181 728 
Q 2875 309 2494 109 
Q 2113 -91 1625 -91 
z
M 891 1344 
Q 891 869 1089 633 
Q 1288 397 1691 397 
Q 2269 397 2648 901 
Q 3028 1406 3028 2181 
Q 3028 2634 2825 2865 
Q 2622 3097 2228 3097 
Q 1903 3097 1650 2945 
Q 1397 2794 1197 2484 
Q 1050 2253 970 1956 
Q 891 1659 891 1344 
z
" transform="scale(0.015625)"/>
      </defs>
      <use xlink:href="#DejaVuSans-Oblique-74" transform="translate(0 0.78125)"/>
      <use xlink:href="#DejaVuSans-Oblique-49" transform="translate(39.208984 -15.625) scale(0.7)"/>
      <use xlink:href="#DejaVuSans-Oblique-6e" transform="translate(59.853516 -15.625) scale(0.7)"/>
      <use xlink:href="#DejaVuSans-Oblique-74" transform="translate(104.21875 -15.625) scale(0.7)"/>
      <use xlink:href="#DejaVuSans-Oblique-65" transform="translate(131.665039 -15.625) scale(0.7)"/>
      <use xlink:href="#DejaVuSans-Oblique-67" transform="translate(174.731445 -15.625) scale(0.7)"/>
      <use xlink:href="#DejaVuSans-Oblique-72" transform="translate(219.165039 -15.625) scale(0.7)"/>
      <use xlink:href="#DejaVuSans-Oblique-61" transform="translate(247.944336 -15.625) scale(0.7)"/>
      <use xlink:href="#DejaVuSans-Oblique-74" transform="translate(290.839844 -15.625) scale(0.7)"/>
      <use xlink:href="#DejaVuSans-Oblique-69" transform="translate(318.286133 -15.625) scale(0.7)"/>
      <use xlink:href="#DejaVuSans-Oblique-6f" transform="translate(337.734375 -15.625) scale(0.7)"/>
      <use xlink:href="#DejaVuSans-Oblique-6e" transform="translate(380.561523 -15.625) scale(0.7)"/>
     </g>
    </g>
   </g>
   <g id="LineCollection_1">
    <path d="M 220.113818 219.502034 
L 220.113818 104.1228 
" clip-path="url(#p08c0662c09)" style="fill: none; stroke: #1f77b4; stroke-width: 1.5"/>
    <path d="M 308.102579 535.21037 
L 308.102579 264.720599 
" clip-path="url(#p08c0662c09)" style="fill: none; stroke: #1f77b4; stroke-width: 1.5"/>
    <path d="M 396.091339 549.35401 
L 396.091339 485.443539 
" clip-path="url(#p08c0662c09)" style="fill: none; stroke: #1f77b4; stroke-width: 1.5"/>
    <path d="M 484.080099 574.3548 
L 484.080099 515.256688 
" clip-path="url(#p08c0662c09)" style="fill: none; stroke: #1f77b4; stroke-width: 1.5"/>
    <path d="M 572.06886 492.750108 
L 572.06886 468.923064 
" clip-path="url(#p08c0662c09)" style="fill: none; stroke: #1f77b4; stroke-width: 1.5"/>
    <path d="M 660.05762 566.872169 
L 660.05762 446.093703 
" clip-path="url(#p08c0662c09)" style="fill: none; stroke: #1f77b4; stroke-width: 1.5"/>
    <path d="M 748.04638 536.296085 
L 748.04638 482.773267 
" clip-path="url(#p08c0662c09)" style="fill: none; stroke: #1f77b4; stroke-width: 1.5"/>
    <path d="M 836.03514 569.747847 
L 836.03514 518.103022 
" clip-path="url(#p08c0662c09)" style="fill: none; stroke: #1f77b4; stroke-width: 1.5"/>
    <path d="M 924.023901 526.465962 
L 924.023901 403.046568 
" clip-path="url(#p08c0662c09)" style="fill: none; stroke: #1f77b4; stroke-width: 1.5"/>
    <path d="M 1012.012661 507.15784 
L 1012.012661 417.777081 
" clip-path="url(#p08c0662c09)" style="fill: none; stroke: #1f77b4; stroke-width: 1.5"/>
    <path d="M 1100.001421 486.82269 
L 1100.001421 417.278239 
" clip-path="url(#p08c0662c09)" style="fill: none; stroke: #1f77b4; stroke-width: 1.5"/>
    <path d="M 1187.990182 560.21116 
L 1187.990182 464.31611 
" clip-path="url(#p08c0662c09)" style="fill: none; stroke: #1f77b4; stroke-width: 1.5"/>
   </g>
   <g id="line2d_16">
    <defs>
     <path id="m0f587179a9" d="M 3 0 
L -3 -0 
" style="stroke: #1f77b4"/>
    </defs>
    <g clip-path="url(#p08c0662c09)">
     <use xlink:href="#m0f587179a9" x="220.113818" y="219.502034" style="fill: #1f77b4; stroke: #1f77b4"/>
     <use xlink:href="#m0f587179a9" x="308.102579" y="535.21037" style="fill: #1f77b4; stroke: #1f77b4"/>
     <use xlink:href="#m0f587179a9" x="396.091339" y="549.35401" style="fill: #1f77b4; stroke: #1f77b4"/>
     <use xlink:href="#m0f587179a9" x="484.080099" y="574.3548" style="fill: #1f77b4; stroke: #1f77b4"/>
     <use xlink:href="#m0f587179a9" x="572.06886" y="492.750108" style="fill: #1f77b4; stroke: #1f77b4"/>
     <use xlink:href="#m0f587179a9" x="660.05762" y="566.872169" style="fill: #1f77b4; stroke: #1f77b4"/>
     <use xlink:href="#m0f587179a9" x="748.04638" y="536.296085" style="fill: #1f77b4; stroke: #1f77b4"/>
     <use xlink:href="#m0f587179a9" x="836.03514" y="569.747847" style="fill: #1f77b4; stroke: #1f77b4"/>
     <use xlink:href="#m0f587179a9" x="924.023901" y="526.465962" style="fill: #1f77b4; stroke: #1f77b4"/>
     <use xlink:href="#m0f587179a9" x="1012.012661" y="507.15784" style="fill: #1f77b4; stroke: #1f77b4"/>
     <use xlink:href="#m0f587179a9" x="1100.001421" y="486.82269" style="fill: #1f77b4; stroke: #1f77b4"/>
     <use xlink:href="#m0f587179a9" x="1187.990182" y="560.21116" style="fill: #1f77b4; stroke: #1f77b4"/>
    </g>
   </g>
   <g id="line2d_17">
    <g clip-path="url(#p08c0662c09)">
     <use xlink:href="#m0f587179a9" x="220.113818" y="104.1228" style="fill: #1f77b4; stroke: #1f77b4"/>
     <use xlink:href="#m0f587179a9" x="308.102579" y="264.720599" style="fill: #1f77b4; stroke: #1f77b4"/>
     <use xlink:href="#m0f587179a9" x="396.091339" y="485.443539" style="fill: #1f77b4; stroke: #1f77b4"/>
     <use xlink:href="#m0f587179a9" x="484.080099" y="515.256688" style="fill: #1f77b4; stroke: #1f77b4"/>
     <use xlink:href="#m0f587179a9" x="572.06886" y="468.923064" style="fill: #1f77b4; stroke: #1f77b4"/>
     <use xlink:href="#m0f587179a9" x="660.05762" y="446.093703" style="fill: #1f77b4; stroke: #1f77b4"/>
     <use xlink:href="#m0f587179a9" x="748.04638" y="482.773267" style="fill: #1f77b4; stroke: #1f77b4"/>
     <use xlink:href="#m0f587179a9" x="836.03514" y="518.103022" style="fill: #1f77b4; stroke: #1f77b4"/>
     <use xlink:href="#m0f587179a9" x="924.023901" y="403.046568" style="fill: #1f77b4; stroke: #1f77b4"/>
     <use xlink:href="#m0f587179a9" x="1012.012661" y="417.777081" style="fill: #1f77b4; stroke: #1f77b4"/>
     <use xlink:href="#m0f587179a9" x="1100.001421" y="417.278239" style="fill: #1f77b4; stroke: #1f77b4"/>
     <use xlink:href="#m0f587179a9" x="1187.990182" y="464.31611" style="fill: #1f77b4; stroke: #1f77b4"/>
    </g>
   </g>
   <g id="line2d_18">
    <path d="M 484.080099 597.8664 
L 484.080099 80.6112 
" clip-path="url(#p08c0662c09)" style="fill: none; stroke: #000000; stroke-width: 0.2; stroke-linecap: square"/>
   </g>
   <g id="line2d_19">
    <path d="M 220.113818 458.889859 
L 223.993082 458.593205 
L 227.872346 458.44804 
L 231.75161 458.454876 
L 235.630874 458.613687 
L 239.510138 458.923917 
L 243.389402 459.384477 
L 249.208298 460.353511 
L 255.027194 461.649386 
L 260.84609 463.261879 
L 266.664986 465.17827 
L 272.483882 467.383439 
L 278.302778 469.859989 
L 284.121674 472.588382 
L 289.94057 475.547094 
L 295.759466 478.712783 
L 303.517994 483.212289 
L 311.276522 487.972114 
L 320.974682 494.18605 
L 355.888058 516.93024 
L 363.646586 521.624689 
L 371.405113 526.040993 
L 377.224009 529.133275 
L 383.042905 532.009783 
L 388.861801 534.647823 
L 394.680697 537.026585 
L 400.499593 539.127302 
L 406.318489 540.9334 
L 412.137385 542.430632 
L 417.956281 543.607184 
L 423.775177 544.453776 
L 427.654441 544.831451 
L 431.533705 545.05813 
L 435.412969 545.133017 
L 439.292233 545.055848 
L 443.171497 544.826895 
L 447.050761 544.446962 
L 452.869657 543.59703 
L 458.688553 542.417218 
L 464.507449 540.916833 
L 470.326345 539.107712 
L 476.145241 537.004127 
L 481.964137 534.622673 
L 487.783033 531.98214 
L 493.601929 529.103357 
L 499.420825 526.009036 
L 507.179353 521.590409 
L 514.937881 516.894116 
L 524.636041 510.733872 
L 540.153097 500.527734 
L 555.670153 490.391716 
L 565.368313 484.345093 
L 573.126841 479.776514 
L 580.885369 475.516418 
L 586.704265 472.559898 
L 592.523161 469.833922 
L 598.342056 467.359994 
L 604.160952 465.157633 
L 609.979848 463.244213 
L 615.798744 461.634829 
L 621.61764 460.342179 
L 627.436536 459.376459 
L 631.3158 458.918145 
L 635.195064 458.610182 
L 639.074328 458.453649 
L 642.953592 458.449097 
L 646.832856 458.59654 
L 650.71212 458.895462 
L 654.591384 459.344814 
L 660.41028 460.297309 
L 666.229176 461.577089 
L 672.048072 463.174057 
L 677.866968 465.075615 
L 683.685864 467.266761 
L 689.50476 469.73021 
L 695.323656 472.446525 
L 701.142552 475.394278 
L 706.961448 478.550214 
L 714.719976 483.038722 
L 722.478504 487.789983 
L 732.176664 493.996814 
L 769.029672 517.94813 
L 776.7882 522.588847 
L 784.546728 526.937901 
L 790.365624 529.971437 
L 796.18452 532.782587 
L 802.003416 535.349173 
L 807.822312 537.650947 
L 813.641208 539.66975 
L 819.460103 541.389655 
L 825.278999 542.797093 
L 831.097895 543.880962 
L 836.916791 544.63271 
L 840.796055 544.946326 
L 844.675319 545.108541 
L 848.554583 545.118788 
L 852.433847 544.97703 
L 856.313111 544.683764 
L 860.192375 544.240019 
L 866.011271 543.2958 
L 871.830167 542.024078 
L 877.649063 540.434884 
L 883.467959 538.540756 
L 889.286855 536.356637 
L 895.105751 533.899758 
L 900.924647 531.189502 
L 906.743543 528.24725 
L 912.562439 525.096214 
L 920.320967 520.613238 
L 928.079495 515.866294 
L 937.777655 509.663061 
L 957.173975 496.878676 
L 968.811767 489.342188 
L 978.509927 483.351324 
L 986.268455 478.843089 
L 992.087351 475.669647 
L 997.906247 472.702215 
L 1003.725143 469.964203 
L 1009.544039 467.477213 
L 1015.362935 465.260864 
L 1021.181831 463.332642 
L 1027.000727 461.707758 
L 1032.819623 460.399033 
L 1038.638518 459.416789 
L 1042.517782 458.947275 
L 1046.397046 458.628008 
L 1050.27631 458.46011 
L 1054.155574 458.44417 
L 1058.034838 458.580242 
L 1061.914102 458.867851 
L 1065.793366 459.305986 
L 1071.612262 460.241923 
L 1077.431158 461.505582 
L 1083.250054 463.086994 
L 1089.06895 464.973683 
L 1094.887846 467.150763 
L 1100.706742 469.601061 
L 1106.525638 472.305245 
L 1112.344534 475.241981 
L 1118.16343 478.388101 
L 1125.921958 482.865524 
L 1133.680486 487.608127 
L 1143.378646 493.807731 
L 1162.774966 506.5911 
L 1174.412758 514.130997 
L 1184.110918 520.126924 
L 1187.990182 522.41995 
L 1187.990182 522.41995 
" clip-path="url(#p08c0662c09)" style="fill: none; stroke: #ff7f0e; stroke-width: 1.5; stroke-linecap: square"/>
   </g>
   <g id="line2d_20">
    <path d="M 220.113818 161.812417 
L 308.102579 399.965485 
L 396.091339 517.398774 
L 484.080099 544.805744 
L 572.06886 480.836586 
L 660.05762 506.482936 
L 748.04638 509.534676 
L 836.03514 543.925434 
L 924.023901 464.756265 
L 1012.012661 462.46746 
L 1100.001421 452.050465 
L 1187.990182 512.263635 
" clip-path="url(#p08c0662c09)" style="fill: none; stroke-dasharray: 5.55,2.4; stroke-dashoffset: 0; stroke: #1f77b4; stroke-width: 1.5"/>
    <defs>
     <path id="m0f3cfc81fe" d="M -3 3 
L 3 -3 
M -3 -3 
L 3 3 
" style="stroke: #1f77b4"/>
    </defs>
    <g clip-path="url(#p08c0662c09)">
     <use xlink:href="#m0f3cfc81fe" x="220.113818" y="161.812417" style="fill: #1f77b4; stroke: #1f77b4"/>
     <use xlink:href="#m0f3cfc81fe" x="308.102579" y="399.965485" style="fill: #1f77b4; stroke: #1f77b4"/>
     <use xlink:href="#m0f3cfc81fe" x="396.091339" y="517.398774" style="fill: #1f77b4; stroke: #1f77b4"/>
     <use xlink:href="#m0f3cfc81fe" x="484.080099" y="544.805744" style="fill: #1f77b4; stroke: #1f77b4"/>
     <use xlink:href="#m0f3cfc81fe" x="572.06886" y="480.836586" style="fill: #1f77b4; stroke: #1f77b4"/>
     <use xlink:href="#m0f3cfc81fe" x="660.05762" y="506.482936" style="fill: #1f77b4; stroke: #1f77b4"/>
     <use xlink:href="#m0f3cfc81fe" x="748.04638" y="509.534676" style="fill: #1f77b4; stroke: #1f77b4"/>
     <use xlink:href="#m0f3cfc81fe" x="836.03514" y="543.925434" style="fill: #1f77b4; stroke: #1f77b4"/>
     <use xlink:href="#m0f3cfc81fe" x="924.023901" y="464.756265" style="fill: #1f77b4; stroke: #1f77b4"/>
     <use xlink:href="#m0f3cfc81fe" x="1012.012661" y="462.46746" style="fill: #1f77b4; stroke: #1f77b4"/>
     <use xlink:href="#m0f3cfc81fe" x="1100.001421" y="452.050465" style="fill: #1f77b4; stroke: #1f77b4"/>
     <use xlink:href="#m0f3cfc81fe" x="1187.990182" y="512.263635" style="fill: #1f77b4; stroke: #1f77b4"/>
    </g>
   </g>
   <g id="patch_3">
    <path d="M 171.72 597.8664 
L 171.72 80.6112 
" style="fill: none; stroke: #000000; stroke-width: 0.8; stroke-linejoin: miter; stroke-linecap: square"/>
   </g>
   <g id="patch_4">
    <path d="M 1236.384 597.8664 
L 1236.384 80.6112 
" style="fill: none; stroke: #000000; stroke-width: 0.8; stroke-linejoin: miter; stroke-linecap: square"/>
   </g>
   <g id="patch_5">
    <path d="M 171.72 597.8664 
L 1236.384 597.8664 
" style="fill: none; stroke: #000000; stroke-width: 0.8; stroke-linejoin: miter; stroke-linecap: square"/>
   </g>
   <g id="patch_6">
    <path d="M 171.72 80.6112 
L 1236.384 80.6112 
" style="fill: none; stroke: #000000; stroke-width: 0.8; stroke-linejoin: miter; stroke-linecap: square"/>
   </g>
   <g id="legend_1">
    <g id="patch_7">
     <path d="M 946.484 117.96745 
L 1229.384 117.96745 
Q 1231.384 117.96745 1231.384 115.96745 
L 1231.384 87.6112 
Q 1231.384 85.6112 1229.384 85.6112 
L 946.484 85.6112 
Q 944.484 85.6112 944.484 87.6112 
L 944.484 115.96745 
Q 944.484 117.96745 946.484 117.96745 
z
" style="fill: #ffffff; opacity: 0.8; stroke: #cccccc; stroke-linejoin: miter"/>
    </g>
    <g id="line2d_21">
     <path d="M 948.484 93.709637 
L 958.484 93.709637 
L 968.484 93.709637 
" style="fill: none; stroke: #000000; stroke-width: 0.2; stroke-linecap: square"/>
    </g>
    <g id="text_18">
     <!-- Number of cores -->
     <g transform="translate(976.484 97.209637) scale(0.1 -0.1)">
      <defs>
       <path id="DejaVuSans-4e" d="M 628 4666 
L 1478 4666 
L 3547 763 
L 3547 4666 
L 4159 4666 
L 4159 0 
L 3309 0 
L 1241 3903 
L 1241 0 
L 628 0 
L 628 4666 
z
" transform="scale(0.015625)"/>
       <path id="DejaVuSans-75" d="M 544 1381 
L 544 3500 
L 1119 3500 
L 1119 1403 
Q 1119 906 1312 657 
Q 1506 409 1894 409 
Q 2359 409 2629 706 
Q 2900 1003 2900 1516 
L 2900 3500 
L 3475 3500 
L 3475 0 
L 2900 0 
L 2900 538 
Q 2691 219 2414 64 
Q 2138 -91 1772 -91 
Q 1169 -91 856 284 
Q 544 659 544 1381 
z
M 1991 3584 
L 1991 3584 
z
" transform="scale(0.015625)"/>
       <path id="DejaVuSans-6d" d="M 3328 2828 
Q 3544 3216 3844 3400 
Q 4144 3584 4550 3584 
Q 5097 3584 5394 3201 
Q 5691 2819 5691 2113 
L 5691 0 
L 5113 0 
L 5113 2094 
Q 5113 2597 4934 2840 
Q 4756 3084 4391 3084 
Q 3944 3084 3684 2787 
Q 3425 2491 3425 1978 
L 3425 0 
L 2847 0 
L 2847 2094 
Q 2847 2600 2669 2842 
Q 2491 3084 2119 3084 
Q 1678 3084 1418 2786 
Q 1159 2488 1159 1978 
L 1159 0 
L 581 0 
L 581 3500 
L 1159 3500 
L 1159 2956 
Q 1356 3278 1631 3431 
Q 1906 3584 2284 3584 
Q 2666 3584 2933 3390 
Q 3200 3197 3328 2828 
z
" transform="scale(0.015625)"/>
       <path id="DejaVuSans-62" d="M 3116 1747 
Q 3116 2381 2855 2742 
Q 2594 3103 2138 3103 
Q 1681 3103 1420 2742 
Q 1159 2381 1159 1747 
Q 1159 1113 1420 752 
Q 1681 391 2138 391 
Q 2594 391 2855 752 
Q 3116 1113 3116 1747 
z
M 1159 2969 
Q 1341 3281 1617 3432 
Q 1894 3584 2278 3584 
Q 2916 3584 3314 3078 
Q 3713 2572 3713 1747 
Q 3713 922 3314 415 
Q 2916 -91 2278 -91 
Q 1894 -91 1617 61 
Q 1341 213 1159 525 
L 1159 0 
L 581 0 
L 581 4863 
L 1159 4863 
L 1159 2969 
z
" transform="scale(0.015625)"/>
       <path id="DejaVuSans-65" d="M 3597 1894 
L 3597 1613 
L 953 1613 
Q 991 1019 1311 708 
Q 1631 397 2203 397 
Q 2534 397 2845 478 
Q 3156 559 3463 722 
L 3463 178 
Q 3153 47 2828 -22 
Q 2503 -91 2169 -91 
Q 1331 -91 842 396 
Q 353 884 353 1716 
Q 353 2575 817 3079 
Q 1281 3584 2069 3584 
Q 2775 3584 3186 3129 
Q 3597 2675 3597 1894 
z
M 3022 2063 
Q 3016 2534 2758 2815 
Q 2500 3097 2075 3097 
Q 1594 3097 1305 2825 
Q 1016 2553 972 2059 
L 3022 2063 
z
" transform="scale(0.015625)"/>
       <path id="DejaVuSans-72" d="M 2631 2963 
Q 2534 3019 2420 3045 
Q 2306 3072 2169 3072 
Q 1681 3072 1420 2755 
Q 1159 2438 1159 1844 
L 1159 0 
L 581 0 
L 581 3500 
L 1159 3500 
L 1159 2956 
Q 1341 3275 1631 3429 
Q 1922 3584 2338 3584 
Q 2397 3584 2469 3576 
Q 2541 3569 2628 3553 
L 2631 2963 
z
" transform="scale(0.015625)"/>
       <path id="DejaVuSans-20" transform="scale(0.015625)"/>
       <path id="DejaVuSans-6f" d="M 1959 3097 
Q 1497 3097 1228 2736 
Q 959 2375 959 1747 
Q 959 1119 1226 758 
Q 1494 397 1959 397 
Q 2419 397 2687 759 
Q 2956 1122 2956 1747 
Q 2956 2369 2687 2733 
Q 2419 3097 1959 3097 
z
M 1959 3584 
Q 2709 3584 3137 3096 
Q 3566 2609 3566 1747 
Q 3566 888 3137 398 
Q 2709 -91 1959 -91 
Q 1206 -91 779 398 
Q 353 888 353 1747 
Q 353 2609 779 3096 
Q 1206 3584 1959 3584 
z
" transform="scale(0.015625)"/>
       <path id="DejaVuSans-66" d="M 2375 4863 
L 2375 4384 
L 1825 4384 
Q 1516 4384 1395 4259 
Q 1275 4134 1275 3809 
L 1275 3500 
L 2222 3500 
L 2222 3053 
L 1275 3053 
L 1275 0 
L 697 0 
L 697 3053 
L 147 3053 
L 147 3500 
L 697 3500 
L 697 3744 
Q 697 4328 969 4595 
Q 1241 4863 1831 4863 
L 2375 4863 
z
" transform="scale(0.015625)"/>
       <path id="DejaVuSans-63" d="M 3122 3366 
L 3122 2828 
Q 2878 2963 2633 3030 
Q 2388 3097 2138 3097 
Q 1578 3097 1268 2742 
Q 959 2388 959 1747 
Q 959 1106 1268 751 
Q 1578 397 2138 397 
Q 2388 397 2633 464 
Q 2878 531 3122 666 
L 3122 134 
Q 2881 22 2623 -34 
Q 2366 -91 2075 -91 
Q 1284 -91 818 406 
Q 353 903 353 1747 
Q 353 2603 823 3093 
Q 1294 3584 2113 3584 
Q 2378 3584 2631 3529 
Q 2884 3475 3122 3366 
z
" transform="scale(0.015625)"/>
       <path id="DejaVuSans-73" d="M 2834 3397 
L 2834 2853 
Q 2591 2978 2328 3040 
Q 2066 3103 1784 3103 
Q 1356 3103 1142 2972 
Q 928 2841 928 2578 
Q 928 2378 1081 2264 
Q 1234 2150 1697 2047 
L 1894 2003 
Q 2506 1872 2764 1633 
Q 3022 1394 3022 966 
Q 3022 478 2636 193 
Q 2250 -91 1575 -91 
Q 1294 -91 989 -36 
Q 684 19 347 128 
L 347 722 
Q 666 556 975 473 
Q 1284 391 1588 391 
Q 1994 391 2212 530 
Q 2431 669 2431 922 
Q 2431 1156 2273 1281 
Q 2116 1406 1581 1522 
L 1381 1569 
Q 847 1681 609 1914 
Q 372 2147 372 2553 
Q 372 3047 722 3315 
Q 1072 3584 1716 3584 
Q 2034 3584 2315 3537 
Q 2597 3491 2834 3397 
z
" transform="scale(0.015625)"/>
      </defs>
      <use xlink:href="#DejaVuSans-4e"/>
      <use xlink:href="#DejaVuSans-75" x="74.804688"/>
      <use xlink:href="#DejaVuSans-6d" x="138.183594"/>
      <use xlink:href="#DejaVuSans-62" x="235.595703"/>
      <use xlink:href="#DejaVuSans-65" x="299.072266"/>
      <use xlink:href="#DejaVuSans-72" x="360.595703"/>
      <use xlink:href="#DejaVuSans-20" x="401.708984"/>
      <use xlink:href="#DejaVuSans-6f" x="433.496094"/>
      <use xlink:href="#DejaVuSans-66" x="494.677734"/>
      <use xlink:href="#DejaVuSans-20" x="529.882812"/>
      <use xlink:href="#DejaVuSans-63" x="561.669922"/>
      <use xlink:href="#DejaVuSans-6f" x="616.650391"/>
      <use xlink:href="#DejaVuSans-72" x="677.832031"/>
      <use xlink:href="#DejaVuSans-65" x="716.695312"/>
      <use xlink:href="#DejaVuSans-73" x="778.21875"/>
     </g>
    </g>
    <g id="line2d_22">
     <path d="M 948.484 108.387762 
L 958.484 108.387762 
L 968.484 108.387762 
" style="fill: none; stroke: #ff7f0e; stroke-width: 1.5; stroke-linecap: square"/>
    </g>
    <g id="text_19">
     <!-- 1.48e-03$\sin(2\pi/$4.68e+00 + 8.19e-02) + 1.88e-02 -->
     <g transform="translate(976.484 111.887762) scale(0.1 -0.1)">
      <defs>
       <path id="DejaVuSans-2d" d="M 313 2009 
L 1997 2009 
L 1997 1497 
L 313 1497 
L 313 2009 
z
" transform="scale(0.015625)"/>
       <path id="DejaVuSans-69" d="M 603 3500 
L 1178 3500 
L 1178 0 
L 603 0 
L 603 3500 
z
M 603 4863 
L 1178 4863 
L 1178 4134 
L 603 4134 
L 603 4863 
z
" transform="scale(0.015625)"/>
       <path id="DejaVuSans-6e" d="M 3513 2113 
L 3513 0 
L 2938 0 
L 2938 2094 
Q 2938 2591 2744 2837 
Q 2550 3084 2163 3084 
Q 1697 3084 1428 2787 
Q 1159 2491 1159 1978 
L 1159 0 
L 581 0 
L 581 3500 
L 1159 3500 
L 1159 2956 
Q 1366 3272 1645 3428 
Q 1925 3584 2291 3584 
Q 2894 3584 3203 3211 
Q 3513 2838 3513 2113 
z
" transform="scale(0.015625)"/>
       <path id="DejaVuSans-28" d="M 1984 4856 
Q 1566 4138 1362 3434 
Q 1159 2731 1159 2009 
Q 1159 1288 1364 580 
Q 1569 -128 1984 -844 
L 1484 -844 
Q 1016 -109 783 600 
Q 550 1309 550 2009 
Q 550 2706 781 3412 
Q 1013 4119 1484 4856 
L 1984 4856 
z
" transform="scale(0.015625)"/>
       <path id="DejaVuSans-Oblique-3c0" d="M 584 3500 
L 3938 3500 
L 3825 2925 
L 3384 2925 
L 2966 775 
Q 2922 550 2981 450 
Q 3038 353 3209 353 
Q 3256 353 3325 363 
Q 3397 369 3419 372 
L 3338 -44 
Q 3222 -84 3103 -103 
Q 2981 -122 2866 -122 
Q 2491 -122 2388 81 
Q 2284 288 2391 838 
L 2797 2925 
L 1506 2925 
L 938 0 
L 350 0 
L 919 2925 
L 472 2925 
L 584 3500 
z
" transform="scale(0.015625)"/>
       <path id="DejaVuSans-2f" d="M 1625 4666 
L 2156 4666 
L 531 -594 
L 0 -594 
L 1625 4666 
z
" transform="scale(0.015625)"/>
       <path id="DejaVuSans-2b" d="M 2944 4013 
L 2944 2272 
L 4684 2272 
L 4684 1741 
L 2944 1741 
L 2944 0 
L 2419 0 
L 2419 1741 
L 678 1741 
L 678 2272 
L 2419 2272 
L 2419 4013 
L 2944 4013 
z
" transform="scale(0.015625)"/>
       <path id="DejaVuSans-39" d="M 703 97 
L 703 672 
Q 941 559 1184 500 
Q 1428 441 1663 441 
Q 2288 441 2617 861 
Q 2947 1281 2994 2138 
Q 2813 1869 2534 1725 
Q 2256 1581 1919 1581 
Q 1219 1581 811 2004 
Q 403 2428 403 3163 
Q 403 3881 828 4315 
Q 1253 4750 1959 4750 
Q 2769 4750 3195 4129 
Q 3622 3509 3622 2328 
Q 3622 1225 3098 567 
Q 2575 -91 1691 -91 
Q 1453 -91 1209 -44 
Q 966 3 703 97 
z
M 1959 2075 
Q 2384 2075 2632 2365 
Q 2881 2656 2881 3163 
Q 2881 3666 2632 3958 
Q 2384 4250 1959 4250 
Q 1534 4250 1286 3958 
Q 1038 3666 1038 3163 
Q 1038 2656 1286 2365 
Q 1534 2075 1959 2075 
z
" transform="scale(0.015625)"/>
       <path id="DejaVuSans-29" d="M 513 4856 
L 1013 4856 
Q 1481 4119 1714 3412 
Q 1947 2706 1947 2009 
Q 1947 1309 1714 600 
Q 1481 -109 1013 -844 
L 513 -844 
Q 928 -128 1133 580 
Q 1338 1288 1338 2009 
Q 1338 2731 1133 3434 
Q 928 4138 513 4856 
z
" transform="scale(0.015625)"/>
      </defs>
      <use xlink:href="#DejaVuSans-31" transform="translate(0 0.015625)"/>
      <use xlink:href="#DejaVuSans-2e" transform="translate(63.623047 0.015625)"/>
      <use xlink:href="#DejaVuSans-34" transform="translate(95.410156 0.015625)"/>
      <use xlink:href="#DejaVuSans-38" transform="translate(159.033203 0.015625)"/>
      <use xlink:href="#DejaVuSans-65" transform="translate(222.65625 0.015625)"/>
      <use xlink:href="#DejaVuSans-2d" transform="translate(284.179688 0.015625)"/>
      <use xlink:href="#DejaVuSans-30" transform="translate(320.263672 0.015625)"/>
      <use xlink:href="#DejaVuSans-33" transform="translate(383.886719 0.015625)"/>
      <use xlink:href="#DejaVuSans-73" transform="translate(447.509766 0.015625)"/>
      <use xlink:href="#DejaVuSans-69" transform="translate(499.609375 0.015625)"/>
      <use xlink:href="#DejaVuSans-6e" transform="translate(527.392578 0.015625)"/>
      <use xlink:href="#DejaVuSans-28" transform="translate(590.771484 0.015625)"/>
      <use xlink:href="#DejaVuSans-32" transform="translate(629.785156 0.015625)"/>
      <use xlink:href="#DejaVuSans-Oblique-3c0" transform="translate(693.408203 0.015625)"/>
      <use xlink:href="#DejaVuSans-2f" transform="translate(753.613281 0.015625)"/>
      <use xlink:href="#DejaVuSans-34" transform="translate(787.304688 0.015625)"/>
      <use xlink:href="#DejaVuSans-2e" transform="translate(850.927734 0.015625)"/>
      <use xlink:href="#DejaVuSans-36" transform="translate(882.714844 0.015625)"/>
      <use xlink:href="#DejaVuSans-38" transform="translate(946.337891 0.015625)"/>
      <use xlink:href="#DejaVuSans-65" transform="translate(1009.960938 0.015625)"/>
      <use xlink:href="#DejaVuSans-2b" transform="translate(1071.484375 0.015625)"/>
      <use xlink:href="#DejaVuSans-30" transform="translate(1155.273438 0.015625)"/>
      <use xlink:href="#DejaVuSans-30" transform="translate(1218.896484 0.015625)"/>
      <use xlink:href="#DejaVuSans-20" transform="translate(1282.519531 0.015625)"/>
      <use xlink:href="#DejaVuSans-2b" transform="translate(1314.306641 0.015625)"/>
      <use xlink:href="#DejaVuSans-20" transform="translate(1398.095703 0.015625)"/>
      <use xlink:href="#DejaVuSans-38" transform="translate(1429.882812 0.015625)"/>
      <use xlink:href="#DejaVuSans-2e" transform="translate(1493.505859 0.015625)"/>
      <use xlink:href="#DejaVuSans-31" transform="translate(1525.292969 0.015625)"/>
      <use xlink:href="#DejaVuSans-39" transform="translate(1588.916016 0.015625)"/>
      <use xlink:href="#DejaVuSans-65" transform="translate(1652.539062 0.015625)"/>
      <use xlink:href="#DejaVuSans-2d" transform="translate(1714.0625 0.015625)"/>
      <use xlink:href="#DejaVuSans-30" transform="translate(1750.146484 0.015625)"/>
      <use xlink:href="#DejaVuSans-32" transform="translate(1813.769531 0.015625)"/>
      <use xlink:href="#DejaVuSans-29" transform="translate(1877.392578 0.015625)"/>
      <use xlink:href="#DejaVuSans-20" transform="translate(1916.40625 0.015625)"/>
      <use xlink:href="#DejaVuSans-2b" transform="translate(1948.193359 0.015625)"/>
      <use xlink:href="#DejaVuSans-20" transform="translate(2031.982422 0.015625)"/>
      <use xlink:href="#DejaVuSans-31" transform="translate(2063.769531 0.015625)"/>
      <use xlink:href="#DejaVuSans-2e" transform="translate(2127.392578 0.015625)"/>
      <use xlink:href="#DejaVuSans-38" transform="translate(2156.554688 0.015625)"/>
      <use xlink:href="#DejaVuSans-38" transform="translate(2220.177734 0.015625)"/>
      <use xlink:href="#DejaVuSans-65" transform="translate(2283.800781 0.015625)"/>
      <use xlink:href="#DejaVuSans-2d" transform="translate(2345.324219 0.015625)"/>
      <use xlink:href="#DejaVuSans-30" transform="translate(2381.408203 0.015625)"/>
      <use xlink:href="#DejaVuSans-32" transform="translate(2445.03125 0.015625)"/>
     </g>
    </g>
   </g>
  </g>
 </g>
 <defs>
  <clipPath id="p08c0662c09">
   <rect x="171.72" y="80.6112" width="1064.664" height="517.2552"/>
  </clipPath>
 </defs>
</svg>
